<svg width="48" height="48" viewBox="0 0 48 48" fill="none" xmlns="http://www.w3.org/2000/svg">
<g filter="url(#filter0_d_7_472)">
<rect x="4" width="40" height="40" rx="20" fill="#43454D" shape-rendering="crispEdges"/>
<path fill-rule="evenodd" clip-rule="evenodd" d="M13.0001 13.9827C12.9999 13.9925 12.9999 14.0024 13 14.0122V26C13 27.6523 14.3477 29 16 29H32C33.6523 29 35 27.6523 35 26V14.0124C35.0002 14.0024 35.0001 13.9925 35 13.9825C34.9905 12.3382 33.6465 11 32 11H16C14.3535 11 13.0095 12.3383 13.0001 13.9827ZM15.1066 13.5539C15.272 13.2269 15.6121 13 16 13H32C32.388 13 32.7281 13.2269 32.8934 13.5539L24 19.7793L15.1066 13.5539ZM33 15.9207V26C33 26.5477 32.5477 27 32 27H16C15.4523 27 15 26.5477 15 26V15.9207L23.4266 21.8192C23.7709 22.0603 24.2292 22.0603 24.5735 21.8192L33 15.9207Z" fill="#12F7D6"/>
</g>
<defs>
<filter id="filter0_d_7_472" x="0" y="0" width="48" height="48" filterUnits="userSpaceOnUse" color-interpolation-filters="sRGB">
<feFlood flood-opacity="0" result="BackgroundImageFix"/>
<feColorMatrix in="SourceAlpha" type="matrix" values="0 0 0 0 0 0 0 0 0 0 0 0 0 0 0 0 0 0 127 0" result="hardAlpha"/>
<feOffset dy="4"/>
<feGaussianBlur stdDeviation="2"/>
<feComposite in2="hardAlpha" operator="out"/>
<feColorMatrix type="matrix" values="0 0 0 0 0 0 0 0 0 0 0 0 0 0 0 0 0 0 0.25 0"/>
<feBlend mode="normal" in2="BackgroundImageFix" result="effect1_dropShadow_7_472"/>
<feBlend mode="normal" in="SourceGraphic" in2="effect1_dropShadow_7_472" result="shape"/>
</filter>
</defs>
</svg>
